<svg id="visual" viewBox="0 0 960 300" width="960" height="300" xmlns="http://www.w3.org/2000/svg" xmlns:xlink="http://www.w3.org/1999/xlink" version="1.1"><rect x="0" y="0" width="960" height="300" fill="#181818"></rect><path d="M0 169L22.8 176.8C45.7 184.7 91.3 200.3 137 205.2C182.7 210 228.3 204 274 208.7C319.7 213.3 365.3 228.7 411.2 229.2C457 229.7 503 215.3 548.8 213.7C594.7 212 640.3 223 686 217.5C731.7 212 777.3 190 823 181.7C868.7 173.3 914.3 178.7 937.2 181.3L960 184L960 0L937.2 0C914.3 0 868.7 0 823 0C777.3 0 731.7 0 686 0C640.3 0 594.7 0 548.8 0C503 0 457 0 411.2 0C365.3 0 319.7 0 274 0C228.3 0 182.7 0 137 0C91.3 0 45.7 0 22.8 0L0 0Z" fill="#181818"></path><path d="M0 160L22.8 155.8C45.7 151.7 91.3 143.3 137 138.5C182.7 133.7 228.3 132.3 274 135C319.7 137.7 365.3 144.3 411.2 155.2C457 166 503 181 548.8 177.2C594.7 173.3 640.3 150.7 686 138.5C731.7 126.3 777.3 124.7 823 125.3C868.7 126 914.3 129 937.2 130.5L960 132L960 0L937.2 0C914.3 0 868.7 0 823 0C777.3 0 731.7 0 686 0C640.3 0 594.7 0 548.8 0C503 0 457 0 411.2 0C365.3 0 319.7 0 274 0C228.3 0 182.7 0 137 0C91.3 0 45.7 0 22.8 0L0 0Z" fill="#284042"></path><path d="M0 131L22.8 134.5C45.7 138 91.3 145 137 149.7C182.7 154.3 228.3 156.7 274 149.3C319.7 142 365.3 125 411.2 115.7C457 106.3 503 104.7 548.8 108C594.7 111.3 640.3 119.7 686 129.3C731.7 139 777.3 150 823 152.2C868.7 154.3 914.3 147.7 937.2 144.3L960 141L960 0L937.2 0C914.3 0 868.7 0 823 0C777.3 0 731.7 0 686 0C640.3 0 594.7 0 548.8 0C503 0 457 0 411.2 0C365.3 0 319.7 0 274 0C228.3 0 182.7 0 137 0C91.3 0 45.7 0 22.8 0L0 0Z" fill="#336d72"></path><path d="M0 79L22.8 75.2C45.7 71.3 91.3 63.7 137 61.8C182.7 60 228.3 64 274 65.3C319.7 66.7 365.3 65.3 411.2 72C457 78.7 503 93.3 548.8 102.2C594.7 111 640.3 114 686 111.2C731.7 108.3 777.3 99.7 823 94C868.7 88.3 914.3 85.7 937.2 84.3L960 83L960 0L937.2 0C914.3 0 868.7 0 823 0C777.3 0 731.7 0 686 0C640.3 0 594.7 0 548.8 0C503 0 457 0 411.2 0C365.3 0 319.7 0 274 0C228.3 0 182.7 0 137 0C91.3 0 45.7 0 22.8 0L0 0Z" fill="#389ea6"></path><path d="M0 26L22.8 29C45.7 32 91.3 38 137 43.5C182.7 49 228.3 54 274 55.7C319.7 57.3 365.3 55.7 411.2 52C457 48.3 503 42.7 548.8 39.2C594.7 35.7 640.3 34.3 686 38C731.7 41.7 777.3 50.3 823 53.5C868.7 56.7 914.3 54.3 937.2 53.2L960 52L960 0L937.2 0C914.3 0 868.7 0 823 0C777.3 0 731.7 0 686 0C640.3 0 594.7 0 548.8 0C503 0 457 0 411.2 0C365.3 0 319.7 0 274 0C228.3 0 182.7 0 137 0C91.3 0 45.7 0 22.8 0L0 0Z" fill="#36d1dc"></path></svg>