<svg id="visual" viewBox="0 0 960 300" width="960" height="300" xmlns="http://www.w3.org/2000/svg" xmlns:xlink="http://www.w3.org/1999/xlink" version="1.1"><rect x="0" y="0" width="960" height="300" fill="#36d1dc"></rect><path d="M0 186L22.8 183.3C45.7 180.7 91.3 175.3 137 182.2C182.7 189 228.3 208 274 206.2C319.7 204.3 365.3 181.7 411.2 170.5C457 159.3 503 159.7 548.8 158.7C594.7 157.7 640.3 155.3 686 165.2C731.7 175 777.3 197 823 200.2C868.7 203.3 914.3 187.7 937.2 179.8L960 172L960 0L937.2 0C914.3 0 868.7 0 823 0C777.3 0 731.7 0 686 0C640.3 0 594.7 0 548.8 0C503 0 457 0 411.2 0C365.3 0 319.7 0 274 0C228.3 0 182.7 0 137 0C91.3 0 45.7 0 22.8 0L0 0Z" fill="#36d1dc"></path><path d="M0 179L22.8 172.5C45.7 166 91.3 153 137 149.5C182.7 146 228.3 152 274 154C319.7 156 365.3 154 411.2 153.5C457 153 503 154 548.8 152.2C594.7 150.3 640.3 145.7 686 145C731.7 144.3 777.3 147.7 823 143.8C868.7 140 914.3 129 937.2 123.5L960 118L960 0L937.2 0C914.3 0 868.7 0 823 0C777.3 0 731.7 0 686 0C640.3 0 594.7 0 548.8 0C503 0 457 0 411.2 0C365.3 0 319.7 0 274 0C228.3 0 182.7 0 137 0C91.3 0 45.7 0 22.8 0L0 0Z" fill="#389ea6"></path><path d="M0 119L22.8 114.7C45.7 110.3 91.3 101.7 137 98.5C182.7 95.3 228.3 97.7 274 107.3C319.7 117 365.3 134 411.2 132.3C457 130.7 503 110.3 548.8 105.2C594.7 100 640.3 110 686 111.2C731.7 112.3 777.3 104.7 823 100.3C868.7 96 914.3 95 937.2 94.5L960 94L960 0L937.2 0C914.3 0 868.7 0 823 0C777.3 0 731.7 0 686 0C640.3 0 594.7 0 548.8 0C503 0 457 0 411.2 0C365.3 0 319.7 0 274 0C228.3 0 182.7 0 137 0C91.3 0 45.7 0 22.8 0L0 0Z" fill="#336d72"></path><path d="M0 115L22.8 107.8C45.7 100.7 91.3 86.3 137 85.3C182.7 84.3 228.3 96.7 274 99.5C319.7 102.3 365.3 95.7 411.2 89.5C457 83.3 503 77.7 548.8 79.2C594.7 80.7 640.3 89.3 686 96.8C731.7 104.3 777.3 110.7 823 109.5C868.7 108.3 914.3 99.7 937.2 95.3L960 91L960 0L937.2 0C914.3 0 868.7 0 823 0C777.3 0 731.7 0 686 0C640.3 0 594.7 0 548.8 0C503 0 457 0 411.2 0C365.3 0 319.7 0 274 0C228.3 0 182.7 0 137 0C91.3 0 45.7 0 22.8 0L0 0Z" fill="#284042"></path><path d="M0 37L22.8 36.8C45.7 36.7 91.3 36.3 137 38.2C182.7 40 228.3 44 274 50.3C319.7 56.7 365.3 65.3 411.2 66C457 66.7 503 59.3 548.8 58.7C594.7 58 640.3 64 686 59.7C731.7 55.3 777.3 40.7 823 35.7C868.7 30.7 914.3 35.3 937.2 37.7L960 40L960 0L937.2 0C914.3 0 868.7 0 823 0C777.3 0 731.7 0 686 0C640.3 0 594.7 0 548.8 0C503 0 457 0 411.2 0C365.3 0 319.7 0 274 0C228.3 0 182.7 0 137 0C91.3 0 45.7 0 22.8 0L0 0Z" fill="#181818"></path></svg>