<svg id="visual" xmlns="http://www.w3.org/2000/svg" viewBox="0 0 960 145.98"><defs><style>.cls-1{fill:#36d1dc;}.cls-2{fill:#389ea6;}.cls-3{fill:#336d72;}.cls-4{fill:#284042;}.cls-5{fill:#181818;}</style></defs><rect class="cls-1" width="960" height="146"/><path class="cls-2" d="M0,0V146l22.8-6.5C45.7,133,91.3,120,137,116.5s91.3,2.5,137,4.5,91.3,0,137.2-.5,91.8.5,137.6-1.3,91.5-6.5,137.2-7.2,91.3,2.7,137-1.2S914.3,96,937.2,90.48L960,85V0Z"/><path class="cls-3" d="M0,0V86l22.8-4.3c22.9-4.4,68.5-13,114.2-16.2s91.3-.8,137,8.8,91.3,26.7,137.2,25,91.8-22,137.6-27.1,91.5,4.8,137.2,6,91.3-6.5,137-10.9,91.3-5.3,114.2-5.8L960,61V0Z"/><path class="cls-4" d="M0,0V82l22.8-7.2C45.7,67.7,91.3,53.3,137,52.3s91.3,11.4,137,14.2,91.3-3.8,137.2-10S503,44.7,548.8,46.2,640.3,56.3,686,63.8s91.3,13.9,137,12.7,91.3-9.8,114.2-14.2L960,58V0Z"/><path class="cls-5" d="M0,0V4l22.8-.2C45.7,3.7,91.3,3.3,137,5.2S228.3,11,274,17.3s91.3,15,137.2,15.7,91.8-6.7,137.6-7.3,91.5,5.3,137.2,1,91.3-19,137-24,91.3-.4,114.2,2L960,7V0Z"/></svg>