<svg id="visual" xmlns="http://www.w3.org/2000/svg" viewBox="0 0 960 151.8"><defs><style>.cls-1{fill:#181818;}.cls-2{fill:#284042;}.cls-3{fill:#336d72;}.cls-4{fill:#389ea6;}.cls-5{fill:#36d1dc;}</style></defs><rect class="cls-1" width="960" height="151.8"/><path class="cls-2" d="M0,0V134l22.8-4.2c22.9-4.1,68.5-12.5,114.2-17.3A836.94,836.94,0,0,1,274,109a794.41,794.41,0,0,1,137.2,20.2C457,140,503,155,548.8,151.2s91.5-26.5,137.2-38.7,91.3-13.8,137-13.2,91.3,3.7,114.2,5.2L960,106V0Z"/><path class="cls-3" d="M0,0V105l22.8,3.5C45.7,112,91.3,119,137,123.7s91.3,7,137-.4S365.3,99,411.2,89.7,503,78.7,548.8,82,640.3,93.7,686,103.3s91.3,20.7,137,22.9,91.3-4.5,114.2-7.9L960,115V0Z"/><path class="cls-4" d="M0,0V53l22.8-3.8C45.7,45.3,91.3,37.7,137,35.8s91.3,2.2,137,3.5,91.3,0,137.2,6.7S503,67.3,548.8,76.2a547.06,547.06,0,0,0,137.2,9c45.7-2.9,91.3-11.5,137-17.2s91.3-8.3,114.2-9.7L960,57V0Z"/><path class="cls-5" d="M0,0,22.8,3C45.7,6,91.3,12,137,17.5S228.3,28,274,29.7s91.3,0,137.2-3.7S503,16.7,548.8,13.2,640.3,8.3,686,12s91.3,12.3,137,15.5,91.3.8,114.2-.3L960,26V0Z"/></svg>